Coordinates
version=1
nRows=6
nColumns=63
inDegrees=yes

Units are S.I. units (second, meters, Newtons, ...)
If the header above contains a line with 'inDegrees', this indicates whether rotational values are in degrees (yes) or radians (no).

endheader
time	pelvis_tilt	pelvis_list	pelvis_rotation	pelvis_tx	pelvis_ty	pelvis_tz	hip_flexion_r	hip_adduction_r	hip_rotation_r	knee_angle_r	knee_angle_r_beta	ankle_angle_r	subtalar_angle_r	mtp_angle_r	hip_flexion_l	hip_adduction_l	hip_rotation_l	knee_angle_l	knee_angle_l_beta	ankle_angle_l	subtalar_angle_l	mtp_angle_l	L5_S1_Flex_Ext	L5_S1_Lat_Bending	L5_S1_axial_rotation	L4_L5_Flex_Ext	L4_L5_Lat_Bending	L4_L5_axial_rotation	L3_L4_Flex_Ext	L3_L4_Lat_Bending	L3_L4_axial_rotation	L2_L3_Flex_Ext	L2_L3_Lat_Bending	L2_L3_axial_rotation	L1_L2_Flex_Ext	L1_L2_Lat_Bending	L1_L2_axial_rotation	L1_T12_Flex_Ext	L1_T12_Lat_Bending	L1_T12_axial_rotation	Abs_r3	Abs_r2	Abs_r1	Abs_t1	Abs_t2	neck_flexion	neck_bending	neck_rotation	arm_flex_r	arm_add_r	arm_rot_r	elbow_flex_r	pro_sup_r	wrist_flex_r	wrist_dev_r	arm_flex_l	arm_add_l	arm_rot_l	elbow_flex_l	pro_sup_l	wrist_flex_l	wrist_dev_l
      0.00000000	     -3.17483359	     -4.82587201	     91.31194575	      0.17179317	      1.07568471	      0.14334336	      4.27141838	     -5.30872204	     -9.93998732	     10.13648673	      0.17691507	     42.86348321	     16.66281753	      0.00000000	      8.69577986	      6.25372385	     12.27612043	     16.97799884	      0.29632198	     36.22323527	    -16.68939834	      0.00000000	     -0.03951854	     -0.26550880	      0.46999518	     -0.07338989	     -0.35312670	      0.49936987	     -0.06492502	     -0.64555810	      0.49936987	     -0.04516575	     -0.64555810	      0.41124578	     -0.03669692	     -0.54142554	      0.38187108	     -0.02258090	     -0.41127313	      0.35249638	     -0.28227701	     -3.00348864	      2.61397217	      0.00000000	      0.00000000	     20.61653606	     -1.01255691	     -5.81067470	     18.94430458	     10.73946370	    221.07368728	      0.25614743	     16.66385743	    -25.59876919	     -6.69288801	     23.85667366	     -0.55667067	    101.86845259	     25.57253949	     41.87359644	      2.04399791	     -8.18843743
      0.01923077	     -3.58089262	     -4.08299668	     89.94452829	      0.17362153	      1.07607146	      0.14101094	      3.97043438	     -5.92797337	    -10.36693385	     11.63987476	      0.20315414	     43.35412665	     17.07602305	      0.00000000	      7.08300408	      6.38351716	     10.22708218	     15.98998851	      0.27907795	     34.81729650	    -16.84575665	      0.00000000	     -0.08021636	     -0.29028274	      0.54070881	     -0.14896980	     -0.38607604	      0.57450311	     -0.13178746	     -0.70579345	      0.57450311	     -0.09167928	     -0.70579345	      0.47312021	     -0.07448891	     -0.59194456	      0.43932591	     -0.04583563	     -0.44964796	      0.40553161	     -0.57297743	     -3.28373639	      3.00726020	      0.00000000	      0.00000000	     19.53630154	     -0.89646798	     -3.83836371	     19.01715382	     10.98944639	    220.95502830	      0.26318149	     16.67715697	    -25.27220649	     -7.77805547	     23.36131470	     -1.03706501	    100.98671134	     25.90469985	     41.34909995	      1.72880289	     -8.34807298
      0.03846154	     -3.78705714	     -3.50122782	     89.07227027	      0.17473585	      1.07649783	      0.13931462	      3.69448320	     -6.30208719	    -10.60556572	     12.61044293	      0.22009375	     43.64343686	     17.37279867	      0.00000000	      5.99431305	      6.45657614	      8.76114822	     15.44074835	      0.26949190	     34.03386634	    -16.86563598	      0.00000000	     -0.11801418	     -0.29964839	      0.59274567	     -0.21916414	     -0.39853236	      0.62979228	     -0.19388550	     -0.72856510	      0.62979228	     -0.13487841	     -0.72856510	      0.51865246	     -0.10958797	     -0.61104300	      0.48160586	     -0.06743330	     -0.46415536	      0.44455925	     -0.84296351	     -3.38968254	      3.29667361	      0.00000000	      0.00000000	     18.70314786	     -0.95133540	     -2.79307392	     19.08583803	     11.13437130	    221.00519808	      0.26848581	     16.61798703	    -24.80092604	     -8.57356771	     22.97719935	     -1.19475628	    100.43727167	     25.89187877	     41.16069163	      1.54406681	     -8.48120261
      0.05769231	     -4.01239549	     -3.12736026	     87.88836336	      0.17628733	      1.07684198	      0.13802810	      3.72886053	     -6.59981571	     -9.88882685	     13.28768393	      0.23191383	     43.83178848	     17.52100521	      0.00000000	      5.13203882	      6.54307796	      7.10697004	     14.63134373	      0.25536512	     33.58139050	    -16.77546406	      0.00000000	     -0.13958323	     -0.31485452	      0.74899978	     -0.25922002	     -0.41875651	      0.79581226	     -0.22932129	     -0.76553728	      0.79581226	     -0.15952967	     -0.76553728	      0.65537480	     -0.12961699	     -0.64205133	      0.60856232	     -0.07975786	     -0.48770965	      0.56174983	     -0.99702906	     -3.56169728	      4.16571205	      0.00000000	      0.00000000	     18.31066888	     -0.81470538	     -1.76336652	     19.12450606	     11.22473503	    221.99854352	      0.27195294	     14.29872755	    -23.90617253	     -9.36520270	     22.65239521	     -1.23125985	    100.00198751	     25.79955380	     41.10508819	      1.33888280	     -8.41073889
      0.07692308	     -4.11482816	     -2.96297632	     87.65542742	      0.17658796	      1.07706222	      0.13715045	      3.75176343	     -6.76505152	     -9.93822767	     13.64779910	      0.23819903	     44.02520098	     17.82341707	      0.00000000	      4.74565055	      6.64230985	      6.79165127	     14.21218917	      0.24804949	     33.51016964	    -16.91678177	      0.00000000	     -0.14651339	     -0.31991522	      0.77416590	     -0.27209002	     -0.42548724	      0.82255126	     -0.24070685	     -0.77784186	      0.82255126	     -0.16745016	     -0.77784186	      0.67739516	     -0.13605234	     -0.65237111	      0.62900979	     -0.08371775	     -0.49554867	      0.58062442	     -1.04653051	     -3.61894494	      4.30567846	      0.00000000	      0.00000000	     18.12866554	     -0.78181034	     -1.26654079	     19.12272833	     11.26046835	    222.10734564	      0.27728620	     13.58364767	    -23.29742979	     -9.93771267	     22.26232833	     -1.21344170	     98.89867769	     25.62383810	     42.21706771	      1.33140291	     -8.22317964
      0.09615385	     -4.12416233	     -2.93210948	     87.76003398	      0.17668444	      1.07724816	      0.13685786	      3.77847674	     -6.74838222	     -9.87592228	     13.66221009	      0.23845055	     44.05485412	     17.87488205	      0.00000000	      4.76187299	      6.64914271	      6.75525752	     14.17348632	      0.24737400	     33.65351584	    -16.97365370	      0.00000000	     -0.15210473	     -0.32292605	      0.77950566	     -0.28247369	     -0.42949165	      0.82822477	     -0.24989286	     -0.78516240	      0.82822477	     -0.17384050	     -0.78516240	      0.68206746	     -0.14124445	     -0.65851081	      0.63334835	     -0.08691264	     -0.50021245	      0.58462925	     -1.08646887	     -3.65300409	      4.33537665	      0.00000000	      0.00000000	     18.13026335	     -0.79081882	     -1.26009889	     19.12464489	     11.27410038	    222.12031843	      0.28080527	     13.58279623	    -23.28189387	     -9.95810508	     22.19811833	     -1.19211176	     98.90627861	     25.58260863	     42.21561062	      1.31819312	     -8.21101153
